<svg width="109" height="38" viewBox="0 0 109 38" fill="none" xmlns="http://www.w3.org/2000/svg">
<path d="M106.005 16.5C107.386 16.5 108.505 17.6193 108.505 19C108.505 20.3807 107.386 21.5 106.005 21.5V16.5ZM1.23226 20.7678C0.255953 19.7915 0.255953 18.2085 1.23226 17.2322L17.1422 1.32233C18.1185 0.34602 19.7014 0.34602 20.6777 1.32233C21.654 2.29864 21.654 3.88155 20.6777 4.85786L6.53556 19L20.6777 33.1421C21.654 34.1184 21.654 35.7014 20.6777 36.6777C19.7014 37.654 18.1185 37.654 17.1422 36.6777L1.23226 20.7678ZM106.005 21.5H3.00003V16.5H106.005V21.5Z" fill="white"/>
</svg>
