<svg width="40" height="40" viewBox="0 0 40 40" fill="none" xmlns="http://www.w3.org/2000/svg">
<path d="M35.7651 15.5565L35.7764 15.6115L35.8101 15.6564C35.846 15.7042 35.8773 15.7554 35.9035 15.8091C35.9495 15.944 35.9682 16.0868 35.9584 16.2291C35.9483 16.3755 35.9082 16.5183 35.8406 16.6486L35.8194 16.6895L35.8141 16.7352C35.7845 16.9927 35.7219 17.2453 35.6277 17.4868C35.3225 18.1819 34.8812 18.8089 34.3298 19.3308C33.7772 19.8538 33.1252 20.2606 32.4125 20.5271L32.25 20.5878V20.7612V33.75C32.25 34.0152 32.1446 34.2696 31.9571 34.4571C31.7696 34.6446 31.5152 34.75 31.25 34.75H8.75C8.48478 34.75 8.23043 34.6446 8.04289 34.4571C7.85536 34.2696 7.75 34.0152 7.75 33.75V20.7612V20.5879L7.58762 20.5271C6.87472 20.2603 6.22262 19.8531 5.66997 19.3297C5.11845 18.8073 4.67717 18.1798 4.37216 17.4841C4.06791 16.7088 4.06796 15.8471 4.37231 15.0718L7.83288 7.1C7.83291 7.09994 7.83293 7.09988 7.83296 7.09982C7.91083 6.92149 8.03904 6.76975 8.20187 6.66321C8.36476 6.55663 8.55522 6.49991 8.74988 6.5H8.75L31.25 6.5L31.2501 6.5C31.4448 6.49991 31.6352 6.55663 31.7981 6.66321C31.961 6.76977 32.0892 6.92153 32.1671 7.0999C32.1671 7.09993 32.1671 7.09997 32.1671 7.1L35.6082 15.0172L35.6079 15.0173L35.6139 15.0293C35.617 15.0356 35.6201 15.0432 35.6277 15.0633C35.6849 15.2243 35.7308 15.3891 35.7651 15.5565ZM16 32.5V32.75H16.25H18.75H19V32.5V25V24.75H18.75H16.25H16V25V32.5ZM21 32.5V32.75H21.25H23.75H24V32.5V25V24.75H23.75H21.25H21V25V32.5ZM30 32.75H30.25V32.5V21.25V20.9968L29.9969 21C29.0863 21.0114 28.1842 20.8237 27.3537 20.45C26.5233 20.0763 25.7845 19.5257 25.1892 18.8366L25.0022 18.6201L24.8127 18.8344C24.2099 19.5162 23.4692 20.0622 22.6395 20.4362C21.8098 20.8101 20.9101 21.0035 20 21.0035C19.0899 21.0035 18.1902 20.8101 17.3605 20.4362C16.5309 20.0622 15.7901 19.5162 15.1873 18.8344L14.9978 18.6201L14.8108 18.8366C14.2155 19.5257 13.4767 20.0763 12.6463 20.45C11.8158 20.8237 10.9137 21.0114 10.0031 21L9.75 20.9968V21.25V32.5V32.75H10H13.75H14V32.5V23.75C14 23.4848 14.1054 23.2304 14.2929 23.0429C14.4804 22.8554 14.7348 22.75 15 22.75H25C25.2652 22.75 25.5196 22.8554 25.7071 23.0429C25.8946 23.2304 26 23.4848 26 23.75V32.5V32.75H26.25H30ZM33.7713 16.7338L33.7778 16.7203L33.7827 16.7062C33.8861 16.405 33.8773 16.0766 33.758 15.7813L33.7581 15.7813L33.7555 15.7754L30.6593 8.65036L30.5939 8.5H30.43H9.57H9.40617L9.34078 8.65021L6.22328 15.8115L6.22018 15.8186L6.21753 15.8259C6.11372 16.1116 6.11372 16.4247 6.21753 16.7104L6.22189 16.7224L6.22745 16.7339C6.56862 17.4391 7.10839 18.0292 7.78043 18.4318C8.44811 18.8317 9.21743 19.0292 9.99497 19.0004C10.9649 19.0753 11.9259 18.7688 12.6736 18.1458C13.4251 17.5195 13.9009 16.6234 13.9987 15.65L14 15.6375V15.625C14 15.3598 14.1054 15.1054 14.2929 14.9179C14.4804 14.7304 14.7348 14.625 15 14.625C15.2652 14.625 15.5196 14.7304 15.7071 14.9179C15.8946 15.1054 16 15.3598 16 15.625V15.6375L16.0013 15.65C16.0991 16.6234 16.5749 17.5195 17.3264 18.1458C18.0728 18.7677 19.0318 19.0742 20 19.0008C20.9682 19.0742 21.9272 18.7677 22.6736 18.1458C23.4251 17.5195 23.9009 16.6234 23.9987 15.65L24 15.6375V15.625C24 15.3598 24.1054 15.1054 24.2929 14.9179C24.4804 14.7304 24.7348 14.625 25 14.625C25.2652 14.625 25.5196 14.7304 25.7071 14.9179C25.8946 15.1054 26 15.3598 26 15.625V15.6375L26.0013 15.65C26.0991 16.6234 26.5749 17.5195 27.3264 18.1458C28.0741 18.7688 29.0352 19.0753 30.005 19.0004C30.7824 19.0291 31.5515 18.8316 32.219 18.4316C32.8908 18.029 33.4304 17.4389 33.7713 16.7338ZM31.25 6.25H8.75L32.3962 7C32.2989 6.77699 32.1386 6.58723 31.935 6.45401C31.7314 6.32078 31.4933 6.24988 31.25 6.25Z" fill="url(#paint0_linear_3_64)" stroke="white" stroke-width="0.5"/>
<defs>
<linearGradient id="paint0_linear_3_64" x1="36.211" y1="6.24975" x2="4.95184" y2="6.2975" gradientUnits="userSpaceOnUse">
<stop stop-color="#E83E8C"/>
<stop offset="1" stop-color="#6F42C1"/>
</linearGradient>
</defs>
</svg>
