<svg width="35" height="31" viewBox="0 0 35 31" fill="none" xmlns="http://www.w3.org/2000/svg">
<path d="M23.8891 22.4146L21.4096 25.0209L20.6467 23.9784C20.4083 23.6467 19.9315 23.5519 19.5977 23.8363C19.2639 24.0732 19.1686 24.5471 19.4547 24.8788L20.7421 26.6321C20.8851 26.8217 21.0758 26.9165 21.3142 26.9165H21.3619C21.5527 26.9165 21.7911 26.8217 21.9341 26.6795L25.0811 23.4098C25.3672 23.1254 25.3672 22.6042 25.0811 22.3199C24.6997 22.1303 24.1752 22.1303 23.8891 22.4146Z" fill="url(#paint0_linear_3_72)"/>
<path d="M14.5429 13.5055L12.0634 16.1119L11.3005 15.0693C11.0621 14.7376 10.5852 14.6428 10.2515 14.9272C9.91769 15.1641 9.82234 15.638 10.1084 15.9697L11.3958 17.723C11.5389 17.9126 11.7296 18.0074 11.968 18.0074H12.0157C12.2064 18.0074 12.4448 17.9126 12.5879 17.7704L15.7349 14.5007C16.021 14.2164 16.021 13.6951 15.7349 13.4108C15.3058 13.1738 14.8289 13.1738 14.5429 13.5055Z" fill="url(#paint1_linear_3_72)"/>
<path d="M32.3761 4.17012H29.9443V1.89551C29.9443 0.85298 28.943 0 27.7033 0C26.4635 0 25.4622 0.85298 25.4622 1.89551V4.17012H19.788V1.89551C19.788 0.85298 18.7867 0 17.547 0C16.3073 0 15.3059 0.85298 15.3059 1.89551V4.17012H9.58409V1.89551C9.58409 0.85298 8.58277 0 7.34303 0C6.1033 0 5.10198 0.85298 5.10198 1.89551V4.17012H2.6702C1.19205 4.17012 0 5.35482 0 6.82384V27.4849C0 28.9539 1.19205 30.1386 2.6702 30.1386H32.3284C33.8066 30.1386 34.9986 28.9539 34.9986 27.4849V6.82384C35.0463 5.4022 33.8542 4.17012 32.3761 4.17012ZM1.52583 12.1787H8.249V19.5711H1.52583V12.1787ZM9.34568 12.1787H16.9748V19.5711H9.34568V12.1787ZM18.0715 12.1787H25.7006V19.5711H18.0715V12.1787ZM26.7973 12.1787H33.5205V19.5711H26.7973V12.1787ZM26.988 4.17012V1.89551C26.988 1.75335 27.2741 1.51641 27.7033 1.51641C28.1324 1.51641 28.4185 1.75335 28.4185 1.89551V4.17012V5.68653V7.29772C28.4185 7.43988 28.1324 7.67683 27.7033 7.67683C27.2741 7.67683 26.988 7.43988 26.988 7.29772V5.68653V4.17012ZM16.8318 4.17012V1.89551C16.8318 1.75335 17.1179 1.51641 17.547 1.51641C17.9761 1.51641 18.2622 1.75335 18.2622 1.89551V4.17012V5.68653V7.29772C18.2622 7.43988 17.9761 7.67683 17.547 7.67683C17.1179 7.67683 16.8318 7.43988 16.8318 7.29772V5.68653V4.17012ZM6.6278 4.17012V1.89551C6.6278 1.75335 6.91389 1.51641 7.34303 1.51641C7.77217 1.51641 8.05826 1.75335 8.05826 1.89551V4.17012V5.68653V7.29772C8.05826 7.43988 7.77217 7.67683 7.34303 7.67683C6.91389 7.67683 6.6278 7.43988 6.6278 7.29772V5.68653V4.17012ZM1.52583 6.87123C1.52583 6.25519 2.05033 5.73392 2.6702 5.73392H5.10198V7.34511C5.10198 8.38764 6.1033 9.24062 7.34303 9.24062C8.58277 9.24062 9.58409 8.38764 9.58409 7.34511V5.68653H15.3059V7.29772C15.3059 8.34025 16.3073 9.19323 17.547 9.19323C18.7867 9.19323 19.788 8.34025 19.788 7.29772V5.68653H25.4622V7.29772C25.4622 8.34025 26.4635 9.19323 27.7033 9.19323C28.943 9.19323 29.9443 8.34025 29.9443 7.29772V5.68653H32.3761C32.996 5.68653 33.5205 6.2078 33.5205 6.82384V10.6149H1.52583V6.87123ZM1.52583 27.5323V20.6611H8.249V28.6696H2.6702C2.05033 28.6696 1.52583 28.1483 1.52583 27.5323ZM9.34568 20.6611H16.9748V28.6696H9.34568V20.6611ZM18.0715 20.6611H25.7006V28.6696H18.0715V20.6611ZM33.5205 27.5323C33.5205 28.1483 32.996 28.6696 32.3761 28.6696H26.845V20.6611H33.5682V27.5323H33.5205Z" fill="url(#paint2_linear_3_72)"/>
<defs>
<linearGradient id="paint0_linear_3_72" x1="25.2957" y1="22.1877" x2="19.482" y2="22.1977" gradientUnits="userSpaceOnUse">
<stop stop-color="#E83E8C"/>
<stop offset="1" stop-color="#6F42C1"/>
</linearGradient>
<linearGradient id="paint1_linear_3_72" x1="15.9495" y1="13.2434" x2="10.1358" y2="13.2533" gradientUnits="userSpaceOnUse">
<stop stop-color="#E83E8C"/>
<stop offset="1" stop-color="#6F42C1"/>
</linearGradient>
<linearGradient id="paint2_linear_3_72" x1="35" y1="-0.000261928" x2="1.14566" y2="0.0531696" gradientUnits="userSpaceOnUse">
<stop stop-color="#E83E8C"/>
<stop offset="1" stop-color="#6F42C1"/>
</linearGradient>
</defs>
</svg>
