<svg width="30" height="30" viewBox="0 0 30 30" fill="none" xmlns="http://www.w3.org/2000/svg">
<path d="M23.9241 16.2984C23.6594 16.2984 23.3827 16.2142 23.118 16.154C22.5819 16.0359 22.0552 15.8791 21.5418 15.6848C20.9837 15.4817 20.3701 15.4923 19.8193 15.7144C19.2684 15.9365 18.8192 16.3545 18.558 16.888L18.2933 17.4294C17.1214 16.7775 16.0445 15.9678 15.0928 15.0231C14.1481 14.0714 13.3384 12.9945 12.6865 11.8226L13.1918 11.4858C13.7253 11.2246 14.1433 10.7753 14.3654 10.2245C14.5875 9.67361 14.5981 9.06006 14.395 8.5019C14.204 7.98745 14.0472 7.46092 13.9258 6.92575C13.8656 6.66105 13.8175 6.38433 13.7814 6.1076C13.6353 5.26011 13.1914 4.49264 12.5296 3.94339C11.8679 3.39414 11.0318 3.09921 10.1719 3.11171H6.56239C6.04387 3.10684 5.53038 3.21375 5.05688 3.42517C4.58339 3.63659 4.161 3.94755 3.81849 4.33687C3.47597 4.7262 3.22136 5.18476 3.07199 5.68133C2.92262 6.1779 2.882 6.70083 2.95289 7.21451C3.59386 12.255 5.89587 16.9384 9.4953 20.5247C13.0947 24.1111 17.7864 26.396 22.8292 27.0186H23.2864C24.1737 27.0199 25.0303 26.6944 25.6928 26.1042C26.0734 25.7638 26.3775 25.3465 26.5849 24.8798C26.7923 24.4131 26.8983 23.9078 26.8959 23.3971V19.7876C26.8812 18.9519 26.5768 18.1472 26.0349 17.5108C25.4929 16.8745 24.7468 16.446 23.9241 16.2984V16.2984ZM24.5257 23.5174C24.5255 23.6883 24.4889 23.8571 24.4183 24.0127C24.3478 24.1683 24.2449 24.3071 24.1166 24.4198C23.9822 24.5359 23.825 24.6226 23.6551 24.6744C23.4852 24.7262 23.3063 24.7419 23.13 24.7206C18.624 24.1428 14.4386 22.0814 11.2339 18.8615C8.02929 15.6416 5.98777 11.4465 5.43142 6.93778C5.41227 6.76154 5.42905 6.58324 5.48075 6.41367C5.53245 6.2441 5.61799 6.08677 5.73221 5.95118C5.84496 5.82284 5.98374 5.71999 6.13933 5.64945C6.29492 5.57892 6.46375 5.54232 6.63458 5.54211H10.2441C10.5239 5.53588 10.7971 5.62739 11.0167 5.80087C11.2363 5.97436 11.3885 6.21897 11.4473 6.49261C11.4954 6.82148 11.5555 7.14633 11.6277 7.46718C11.7667 8.10142 11.9517 8.7247 12.1812 9.33208L10.4967 10.1141C10.3527 10.1802 10.2232 10.2741 10.1155 10.3904C10.0079 10.5067 9.92428 10.6431 9.8695 10.7918C9.81472 10.9404 9.78985 11.0985 9.79632 11.2568C9.80279 11.4151 9.84047 11.5706 9.9072 11.7144C11.6388 15.4234 14.6203 18.4049 18.3294 20.1365C18.6223 20.2569 18.9509 20.2569 19.2438 20.1365C19.3938 20.0829 19.5317 19.9999 19.6494 19.8925C19.7672 19.7851 19.8624 19.6554 19.9296 19.5109L20.6755 17.8264C21.2975 18.0489 21.9324 18.2337 22.5765 18.3799C22.8974 18.4521 23.2222 18.5123 23.5511 18.5604C23.8248 18.6191 24.0694 18.7713 24.2429 18.9909C24.4163 19.2105 24.5078 19.4838 24.5016 19.7635L24.5257 23.5174Z" fill="#E83E8C"/>
</svg>
