<svg width="40" height="40" viewBox="0 0 40 40" fill="none" xmlns="http://www.w3.org/2000/svg">
<path d="M26.9444 9.99992C26.791 9.99992 26.6667 10.1243 26.6667 10.2777V13.0555C26.6667 13.2089 26.791 13.3333 26.9444 13.3333H29.7222C29.8756 13.3333 30 13.2089 30 13.0555V10.2777C30 10.1243 29.8756 9.99992 29.7222 9.99992H26.9444ZM26.6667 29.9999V29.1666C26.6667 28.7063 27.0398 28.3333 27.5 28.3333C27.9602 28.3333 28.3333 28.7063 28.3333 29.1666V29.9999H30V29.1666C30 28.7063 30.3731 28.3333 30.8333 28.3333C31.2936 28.3333 31.6667 28.7063 31.6667 29.1666V30.8333C31.6667 31.2935 31.2936 31.6666 30.8333 31.6666H24.1667C23.7064 31.6666 23.3333 31.2935 23.3333 30.8333V29.1666C23.3333 28.7063 23.7064 28.3333 24.1667 28.3333C24.6269 28.3333 25 28.7063 25 29.1666V29.9999H26.6667ZM21.6667 18.3333H22.5C22.9602 18.3333 23.3333 18.7063 23.3333 19.1666C23.3333 19.6268 22.9602 19.9999 22.5 19.9999H19.1667C18.7064 19.9999 18.3333 19.6268 18.3333 19.1666C18.3333 18.7063 18.7064 18.3333 19.1667 18.3333H20V16.6666H17.5C17.0398 16.6666 16.6667 16.2935 16.6667 15.8333C16.6667 15.373 17.0398 14.9999 17.5 14.9999H22.5C22.9602 14.9999 23.3333 15.373 23.3333 15.8333C23.3333 16.2935 22.9602 16.6666 22.5 16.6666H21.6667V18.3333ZM30 19.9999H29.1667C28.7064 19.9999 28.3333 19.6268 28.3333 19.1666C28.3333 18.7063 28.7064 18.3333 29.1667 18.3333H30V17.4999C30 17.0397 30.3731 16.6666 30.8333 16.6666C31.2936 16.6666 31.6667 17.0397 31.6667 17.4999V20.8333C31.6667 21.2935 31.2936 21.6666 30.8333 21.6666C30.3731 21.6666 30 21.2935 30 20.8333V19.9999ZM21.6667 23.3333H20.8333C20.3731 23.3333 20 22.9602 20 22.4999C20 22.0397 20.3731 21.6666 20.8333 21.6666H22.5C22.9602 21.6666 23.3333 22.0397 23.3333 22.4999V25.8333C23.3333 26.2935 22.9602 26.6666 22.5 26.6666H17.5C17.0398 26.6666 16.6667 26.2935 16.6667 25.8333C16.6667 25.373 17.0398 24.9999 17.5 24.9999H21.6667V23.3333ZM26.9444 8.33325H29.7222C30.7961 8.33325 31.6667 9.20381 31.6667 10.2777V13.0555C31.6667 14.1294 30.7961 14.9999 29.7222 14.9999H26.9444C25.8706 14.9999 25 14.1294 25 13.0555V10.2777C25 9.20381 25.8706 8.33325 26.9444 8.33325ZM10.2778 8.33325H13.0556C14.1294 8.33325 15 9.20381 15 10.2777V13.0555C15 14.1294 14.1294 14.9999 13.0556 14.9999H10.2778C9.20389 14.9999 8.33333 14.1294 8.33333 13.0555V10.2777C8.33333 9.20381 9.20389 8.33325 10.2778 8.33325ZM10.2778 9.99992C10.1244 9.99992 9.99999 10.1243 9.99999 10.2777V13.0555C9.99999 13.2089 10.1244 13.3333 10.2778 13.3333H13.0556C13.209 13.3333 13.3333 13.2089 13.3333 13.0555V10.2777C13.3333 10.1243 13.209 9.99992 13.0556 9.99992H10.2778ZM10.2778 24.9999H13.0556C14.1294 24.9999 15 25.8705 15 26.9444V29.7221C15 30.796 14.1294 31.6666 13.0556 31.6666H10.2778C9.20389 31.6666 8.33333 30.796 8.33333 29.7221V26.9444C8.33333 25.8705 9.20389 24.9999 10.2778 24.9999ZM10.2778 26.6666C10.1244 26.6666 9.99999 26.7909 9.99999 26.9444V29.7221C9.99999 29.8756 10.1244 29.9999 10.2778 29.9999H13.0556C13.209 29.9999 13.3333 29.8756 13.3333 29.7221V26.9444C13.3333 26.7909 13.209 26.6666 13.0556 26.6666H10.2778ZM21.6667 9.99992H17.5C17.0398 9.99992 16.6667 9.62682 16.6667 9.16659C16.6667 8.70635 17.0398 8.33325 17.5 8.33325H22.5C22.9602 8.33325 23.3333 8.70635 23.3333 9.16659V12.4999C23.3333 12.9602 22.9602 13.3333 22.5 13.3333C22.0398 13.3333 21.6667 12.9602 21.6667 12.4999V9.99992ZM17.5 13.3333C17.0398 13.3333 16.6667 12.9602 16.6667 12.4999C16.6667 12.0397 17.0398 11.6666 17.5 11.6666H19.1667C19.6269 11.6666 20 12.0397 20 12.4999C20 12.9602 19.6269 13.3333 19.1667 13.3333H17.5ZM9.16666 23.3333C8.70642 23.3333 8.33333 22.9602 8.33333 22.4999C8.33333 22.0397 8.70642 21.6666 9.16666 21.6666H12.5C12.9602 21.6666 13.3333 22.0397 13.3333 22.4999C13.3333 22.9602 12.9602 23.3333 12.5 23.3333H9.16666ZM15.8333 23.3333C15.3731 23.3333 15 22.9602 15 22.4999C15 22.0397 15.3731 21.6666 15.8333 21.6666H17.5C17.9602 21.6666 18.3333 22.0397 18.3333 22.4999C18.3333 22.9602 17.9602 23.3333 17.5 23.3333H15.8333ZM18.3333 29.9999V30.8333C18.3333 31.2935 17.9602 31.6666 17.5 31.6666C17.0398 31.6666 16.6667 31.2935 16.6667 30.8333V29.1666C16.6667 28.7063 17.0398 28.3333 17.5 28.3333H20.8333C21.2936 28.3333 21.6667 28.7063 21.6667 29.1666C21.6667 29.6268 21.2936 29.9999 20.8333 29.9999H18.3333ZM15 18.3333H15.8333C16.2936 18.3333 16.6667 18.7063 16.6667 19.1666C16.6667 19.6268 16.2936 19.9999 15.8333 19.9999H14.1667C13.7064 19.9999 13.3333 19.6268 13.3333 19.1666V18.3333H12.5C12.0398 18.3333 11.6667 17.9602 11.6667 17.4999C11.6667 17.0397 12.0398 16.6666 12.5 16.6666H14.1667C14.6269 16.6666 15 17.0397 15 17.4999V18.3333ZM8.33333 17.4999C8.33333 17.0397 8.70642 16.6666 9.16666 16.6666C9.6269 16.6666 9.99999 17.0397 9.99999 17.4999V19.1666C9.99999 19.6268 9.6269 19.9999 9.16666 19.9999C8.70642 19.9999 8.33333 19.6268 8.33333 19.1666V17.4999ZM25 17.4999C25 17.0397 25.3731 16.6666 25.8333 16.6666C26.2936 16.6666 26.6667 17.0397 26.6667 17.4999V20.8333C26.6667 21.2935 26.2936 21.6666 25.8333 21.6666C25.3731 21.6666 25 21.2935 25 20.8333V17.4999ZM28.3333 24.9999V24.1666C28.3333 23.7063 28.7064 23.3333 29.1667 23.3333H30.8333C31.2936 23.3333 31.6667 23.7063 31.6667 24.1666C31.6667 24.6268 31.2936 24.9999 30.8333 24.9999H30V25.8333C30 26.2935 29.6269 26.6666 29.1667 26.6666H25.8333C25.3731 26.6666 25 26.2935 25 25.8333V24.1666C25 23.7063 25.3731 23.3333 25.8333 23.3333C26.2936 23.3333 26.6667 23.7063 26.6667 24.1666V24.9999H28.3333ZM4.99999 10.8333C4.99999 11.2935 4.6269 11.6666 4.16666 11.6666C3.70642 11.6666 3.33333 11.2935 3.33333 10.8333V7.49992C3.33333 5.19873 5.19881 3.33325 7.49999 3.33325H10.8333C11.2936 3.33325 11.6667 3.70635 11.6667 4.16659C11.6667 4.62682 11.2936 4.99992 10.8333 4.99992H7.49999C6.11928 4.99992 4.99999 6.11921 4.99999 7.49992V10.8333ZM29.1667 4.99992C28.7064 4.99992 28.3333 4.62682 28.3333 4.16659C28.3333 3.70635 28.7064 3.33325 29.1667 3.33325H32.5C34.8012 3.33325 36.6667 5.19873 36.6667 7.49992V10.8333C36.6667 11.2935 36.2936 11.6666 35.8333 11.6666C35.3731 11.6666 35 11.2935 35 10.8333V7.49992C35 6.11921 33.8807 4.99992 32.5 4.99992H29.1667ZM10.8333 34.9999C11.2936 34.9999 11.6667 35.373 11.6667 35.8333C11.6667 36.2935 11.2936 36.6666 10.8333 36.6666H7.49999C5.19881 36.6666 3.33333 34.8011 3.33333 32.4999V29.1666C3.33333 28.7063 3.70642 28.3333 4.16666 28.3333C4.6269 28.3333 4.99999 28.7063 4.99999 29.1666V32.4999C4.99999 33.8806 6.11928 34.9999 7.49999 34.9999H10.8333ZM35 29.1666C35 28.7063 35.3731 28.3333 35.8333 28.3333C36.2936 28.3333 36.6667 28.7063 36.6667 29.1666V32.4999C36.6667 34.8011 34.8012 36.6666 32.5 36.6666H29.1667C28.7064 36.6666 28.3333 36.2935 28.3333 35.8333C28.3333 35.373 28.7064 34.9999 29.1667 34.9999H32.5C33.8807 34.9999 35 33.8806 35 32.4999V29.1666Z" fill="url(#paint0_linear_3_49)"/>
<defs>
<linearGradient id="paint0_linear_3_49" x1="36.6667" y1="3.33296" x2="4.42441" y2="3.37678" gradientUnits="userSpaceOnUse">
<stop stop-color="#E83E8C"/>
<stop offset="1" stop-color="#6F42C1"/>
</linearGradient>
</defs>
</svg>
