<svg width="33" height="40" viewBox="0 0 33 40" fill="none" xmlns="http://www.w3.org/2000/svg">
<path d="M26.9609 22.2656C26.7422 21.6406 26.1797 21.25 25.5234 21.25H24.5312V3.28125C24.5312 1.45187 23.0794 0 21.25 0H3.59375C1.65156 0 0 1.65156 0 3.59375V32.1875C0 34.0469 1.71094 35.625 3.55469 35.625H21.4005C21.5891 35.625 21.7552 35.7788 21.7411 35.9669C21.7263 36.1647 21.5609 36.25 21.3672 36.25H14.2578L19.6875 39.375H32.1875L26.9609 22.2656ZM12.5078 34.0937C12.008 34.0937 11.633 33.7189 11.6328 33.2191C11.6327 32.7433 12.0323 32.3438 12.5081 32.3438C13.008 32.3439 13.3828 32.7189 13.3828 33.2188C13.3672 33.7188 13.0078 34.0937 12.5078 34.0937ZM22.1875 21.25H19.1172C18.2891 21.25 17.5859 21.9844 17.5859 22.8125C17.5859 23.6406 18.2891 24.375 19.1172 24.375H22.2109V30.9375H2.5V4.53125H22.1875V21.25ZM5.92109 9.94734L6.98719 18.2689H10.5477L11.6034 9.94734H7.24578L6.37641 6.93547L5.90031 7.07L6.72828 9.93703L5.92109 9.94734ZM12.1105 14.8016C12.1105 14.8016 11.9759 13.5906 13.8286 13.5906H16.7784C18.6208 13.5906 18.4966 14.8016 18.4966 14.8016H12.1105ZM18.4861 17.058C18.4861 17.058 18.6103 18.2689 16.768 18.2689H13.8286C11.9759 18.2689 12.1105 17.058 12.1105 17.058H18.4861ZM12.3898 16.468C12.0897 16.468 11.8412 16.2298 11.8412 15.9194C11.8412 15.6192 12.0794 15.3708 12.3898 15.3708H18.248C18.5481 15.3708 18.7966 15.6089 18.7966 15.9194C18.7966 16.2195 18.5481 16.468 18.248 16.468H12.3898ZM18.9208 19.9042H5.67266V18.9003H18.9209L18.9208 19.9042Z" fill="url(#paint0_linear_3_57)"/>
<defs>
<linearGradient id="paint0_linear_3_57" x1="32.1875" y1="-0.000342199" x2="1.05356" y2="0.0342469" gradientUnits="userSpaceOnUse">
<stop stop-color="#E83E8C"/>
<stop offset="1" stop-color="#6F42C1"/>
</linearGradient>
</defs>
</svg>
