<?xml version="1.0" encoding="UTF-8" standalone="no"?>
<!DOCTYPE svg PUBLIC "-//W3C//DTD SVG 1.1//EN" "http://www.w3.org/Graphics/SVG/1.1/DTD/svg11.dtd">
<svg width="100%" height="100%" viewBox="0 0 200 200" version="1.1" xmlns="http://www.w3.org/2000/svg" xmlns:xlink="http://www.w3.org/1999/xlink" xml:space="preserve" xmlns:serif="http://www.serif.com/" style="fill-rule:evenodd;clip-rule:evenodd;stroke-linejoin:round;stroke-miterlimit:2;">
    <g transform="matrix(0.000480427,1.77974,-1.77974,0.000480427,100,100)">
        <g id="arrow-1.svg" transform="matrix(1,0,0,1,-54.5,-19)">
            <path d="M106.005,16.5C107.386,16.5 108.505,17.619 108.505,19C108.505,20.381 107.386,21.5 106.005,21.5L106.005,16.5ZM1.232,20.768C0.256,19.792 0.256,18.209 1.232,17.232L17.142,1.322C18.119,0.346 19.701,0.346 20.678,1.322C21.654,2.299 21.654,3.882 20.678,4.858L6.536,19L20.678,33.142C21.654,34.118 21.654,35.701 20.678,36.678C19.701,37.654 18.119,37.654 17.142,36.678L1.232,20.768ZM106.005,21.5L3,21.5L3,16.5L106.005,16.5L106.005,21.5Z" style="fill:white;fill-rule:nonzero;"/>
        </g>
        <g id="arrow-1.svg1" serif:id="arrow-1.svg">
        </g>
    </g>
</svg>
